# xmcd
#
# Track frame offsets: 
#        150
#        14114
#        30941
#        48855
#        71478
#        89218
#        114425
#        138720
#        159748
#        171365
#
# Disc length: 2548 seconds
#
# Revision: 0
# Processed by: cddbd v1.5.2PL0 Copyright (c) Steve Scherf et al.
# Submitted via: ExactAudioCopy v1.1
#
DISCID=8b09f20a
DTITLE=Jan Gerfast - Still Out There
DYEAR=2008
DGENRE=Blues Rock
TTITLE0=Loving Machine
TTITLE1=Don't You Wanna Sing Along
TTITLE2=I'll Make You Mine
TTITLE3=Out In The Universe
TTITLE4=You Know The Deal
TTITLE5=Rocking In The Grave
TTITLE6=I'm Going Down
TTITLE7=On The Loose
TTITLE8=Wine Women And Blues
TTITLE9=A Lot To Say
EXTD=
EXTT0=
EXTT1=
EXTT2=
EXTT3=
EXTT4=
EXTT5=
EXTT6=
EXTT7=
EXTT8=
EXTT9=
PLAYORDER=
